<svg xmlns="http://www.w3.org/2000/svg" xmlns:xlink="http://www.w3.org/1999/xlink" version="1.1" data-diagram-type="STATE" style="width:1134px;height:762px;background:#FFFFFF;" width="1134px" height="762px" viewBox="0 0 1134 762" zoomAndPan="magnify" preserveAspectRatio="none" contentStyleType="text/css"><?plantuml 1.2026.8?><defs/><g font-family="sans-serif" lengthAdjust="spacing"><g class="title" data-source-line="1"><text x="440.062" y="24.533" fill="#000" font-size="14" textLength="247.037" font-weight="700">Onbora - Machine d'états d'une visite</text></g><g class="start_entity" data-qualified-name=".start." id="ent0001" data-source-line="5"><ellipse cx="795.03" cy="54.609" rx="10" ry="10" fill="#222" style="stroke:#222;stroke-width:1;"/></g><rect x="754.03" y="127.109" width="81.579" height="40" fill="#F1F1F1" style="stroke:#181818;stroke-width:0.5;" rx="12.5" ry="12.5"/><text x="759.03" y="152.838" fill="#000" font-size="14" textLength="71.579">PLANIFIEE</text><rect x="655.03" y="246.609" width="96.352" height="40" fill="#F1F1F1" style="stroke:#181818;stroke-width:0.5;" rx="12.5" ry="12.5"/><text x="660.03" y="272.338" fill="#000" font-size="14" textLength="86.352">BRIEF_PRET</text><rect x="1044.03" y="316.609" width="76.131" height="40" fill="#F1F1F1" style="stroke:#181818;stroke-width:0.5;" rx="12.5" ry="12.5"/><text x="1049.03" y="342.338" fill="#000" font-size="14" textLength="66.131">ANNULEE</text><rect x="410.03" y="388.109" width="87.793" height="40" fill="#F1F1F1" style="stroke:#181818;stroke-width:0.5;" rx="12.5" ry="12.5"/><text x="415.03" y="413.838" fill="#000" font-size="14" textLength="77.793">EN_COURS</text><rect x="702.03" y="388.109" width="115.807" height="40" fill="#F1F1F1" style="stroke:#181818;stroke-width:0.5;" rx="12.5" ry="12.5"/><text x="707.03" y="413.838" fill="#000" font-size="14" textLength="105.807">A_REGENERER</text><rect x="192.53" y="127.109" width="144.606" height="40" fill="#F1F1F1" style="stroke:#181818;stroke-width:0.5;" rx="12.5" ry="12.5"/><text x="197.53" y="152.838" fill="#000" font-size="14" textLength="134.606">BROUILLON_LOCAL</text><rect x="375.53" y="246.609" width="87.034" height="40" fill="#F1F1F1" style="stroke:#181818;stroke-width:0.5;" rx="12.5" ry="12.5"/><text x="380.53" y="272.338" fill="#000" font-size="14" textLength="77.034">A_VALIDER</text><rect x="244.03" y="246.609" width="69.89" height="40" fill="#F1F1F1" style="stroke:#181818;stroke-width:0.5;" rx="12.5" ry="12.5"/><text x="249.03" y="272.338" fill="#000" font-size="14" textLength="59.89">CONFLIT</text><rect x="49.53" y="388.109" width="69.138" height="40" fill="#F1F1F1" style="stroke:#181818;stroke-width:0.5;" rx="12.5" ry="12.5"/><text x="54.53" y="413.838" fill="#000" font-size="14" textLength="59.138">VALIDEE</text><rect x="235.53" y="507.609" width="187.365" height="40" fill="#F1F1F1" style="stroke:#181818;stroke-width:0.5;" rx="12.5" ry="12.5"/><text x="240.53" y="533.338" fill="#000" font-size="14" textLength="177.365">SYNC_CRM_EN_ATTENTE</text><rect x="143.03" y="625.609" width="82.338" height="40" fill="#F1F1F1" style="stroke:#181818;stroke-width:0.5;" rx="12.5" ry="12.5"/><text x="148.03" y="651.338" fill="#000" font-size="14" textLength="72.338">TERMINEE</text><rect x="377.03" y="625.609" width="105.689" height="40" fill="#F1F1F1" style="stroke:#181818;stroke-width:0.5;" rx="12.5" ry="12.5"/><text x="382.03" y="651.338" fill="#000" font-size="14" textLength="95.689">ECHEC_SYNC</text><g class="end_entity" data-qualified-name=".end." id="ent0032" data-source-line="23"><ellipse cx="691.03" cy="737.609" rx="11" ry="11" fill="none" style="stroke:#222;stroke-width:1;"/><ellipse cx="691.03" cy="737.609" rx="6" ry="6" fill="#222" style="stroke:#222;stroke-width:1;"/></g><g class="entity" data-qualified-name="GMN35" id="ent0036" data-source-line="27"><path d="M372.53,125.609 L372.53,143.109 L337.55,147.109 L372.53,151.109 L372.53,168.313 A0,0 0 0 0 372.53,168.313 L599.461,168.313 A0,0 0 0 0 599.461,168.313 L599.461,135.609 L589.461,125.609 L372.53,125.609 A0,0 0 0 0 372.53,125.609" style="stroke:#181818;stroke-width:0.5;" fill="#FEFFDD"/><path d="M589.461,125.609 L589.461,135.609 L599.461,135.609 L589.461,125.609" style="stroke:#181818;stroke-width:0.5;" fill="#FEFFDD"/><text x="378.53" y="144.104" fill="#000" font-size="13" textLength="205.931">Le terminal conserve la commande,</text><text x="378.53" y="160.456" fill="#000" font-size="13" textLength="188.621">son identifiant client et son hash.</text></g><g class="entity" data-qualified-name="GMN38" id="ent0039" data-source-line="32"><path d="M153.53,386.609 L153.53,404.109 L118.83,408.109 L153.53,412.109 L153.53,429.313 A0,0 0 0 0 153.53,429.313 L374.722,429.313 A0,0 0 0 0 374.722,429.313 L374.722,396.609 L364.722,386.609 L153.53,386.609 A0,0 0 0 0 153.53,386.609" style="stroke:#181818;stroke-width:0.5;" fill="#FEFFDD"/><path d="M364.722,386.609 L364.722,396.609 L374.722,396.609 L364.722,386.609" style="stroke:#181818;stroke-width:0.5;" fill="#FEFFDD"/><text x="159.53" y="405.104" fill="#000" font-size="13" textLength="200.192">Une synthèse IA non relue ne peut</text><text x="159.53" y="421.456" fill="#000" font-size="13" textLength="139.439">pas écrire dans le CRM.</text></g><!--link *start* to PLANIFIEE--><g class="link" data-entity-1="ent0001" data-entity-2="ent0002" id="lnk3" data-source-line="5" data-link-type="dependency"><path d="M795.03,64.619 C795.03,79.099 795.03,102.889 795.03,122.079" style="stroke:#181818;stroke-width:1;" fill="none" id="*start*-to-PLANIFIEE"/><polygon points="795.03,127.079,799.03,118.079,795.03,122.079,791.03,118.079,795.03,127.079" fill="#181818" style="stroke:#181818;stroke-width:1;stroke-linejoin:miter;stroke-miterlimit:10;"/></g><!--link PLANIFIEE to BRIEF_PRET--><g class="link" data-entity-1="ent0002" data-entity-2="ent0004" id="lnk5" data-source-line="6" data-link-type="dependency"><path d="M780.04,167.249 C762.94,189.099 738.192,220.692 721.092,242.542" style="stroke:#181818;stroke-width:1;" fill="none" id="PLANIFIEE-to-BRIEF_PRET"/><polygon points="718.01,246.479,726.707,241.857,721.092,242.542,720.407,236.927,718.01,246.479" fill="#181818" style="stroke:#181818;stroke-width:1;stroke-linejoin:miter;stroke-miterlimit:10;"/><text x="755.03" y="213.104" fill="#000" font-size="13" textLength="80.945">briefing publié</text></g><!--link PLANIFIEE to ANNULEE--><g class="link" data-entity-1="ent0002" data-entity-2="ent0006" id="lnk7" data-source-line="7" data-link-type="dependency"><path d="M824.13,167.119 C879.14,203.059 993.604,277.834 1048.664,313.814" style="stroke:#181818;stroke-width:1;" fill="none" id="PLANIFIEE-to-ANNULEE"/><polygon points="1052.85,316.549,1047.504,308.278,1048.664,313.814,1043.128,314.975,1052.85,316.549" fill="#181818" style="stroke:#181818;stroke-width:1;stroke-linejoin:miter;stroke-miterlimit:10;"/><text x="897.03" y="213.104" fill="#000" font-size="13" textLength="59.998">annulation</text></g><!--link BRIEF_PRET to EN_COURS--><g class="link" data-entity-1="ent0004" data-entity-2="ent0008" id="lnk9" data-source-line="8" data-link-type="dependency"><path d="M667.04,286.639 C650.93,295.409 631.81,306.179 615.03,316.609 C588.43,333.129 584.05,340.789 557.03,356.609 C537.61,367.979 519.791,377.024 500.881,385.954" style="stroke:#181818;stroke-width:1;" fill="none" id="BRIEF_PRET-to-EN_COURS"/><polygon points="496.36,388.089,506.206,387.863,500.881,385.954,502.79,380.629,496.36,388.089" fill="#181818" style="stroke:#181818;stroke-width:1;stroke-linejoin:miter;stroke-miterlimit:10;"/><text x="616.03" y="342.104" fill="#000" font-size="13" textLength="52.736">démarrer</text></g><!--link BRIEF_PRET to A_REGENERER--><g class="link" data-entity-1="ent0004" data-entity-2="ent0010" id="lnk11" data-source-line="9" data-link-type="dependency"><path d="M751.03,271.619 C781.12,276.899 817.73,288.999 837.03,316.609 C847.22,331.179 845.48,340.969 837.03,356.609 C829.89,369.829 821.873,377.537 809.193,385.307" style="stroke:#181818;stroke-width:1;" fill="none" id="BRIEF_PRET-to-A_REGENERER"/><polygon points="804.93,387.919,814.694,386.628,809.193,385.307,810.514,379.806,804.93,387.919" fill="#181818" style="stroke:#181818;stroke-width:1;stroke-linejoin:miter;stroke-miterlimit:10;"/><text x="845.03" y="342.104" fill="#000" font-size="13" textLength="161.148">données critiques modifiées</text></g><!--link A_REGENERER to BRIEF_PRET--><g class="link" data-entity-1="ent0010" data-entity-2="ent0004" id="lnk12" data-source-line="10" data-link-type="dependency"><path d="M715.13,387.919 C702.45,380.149 690.17,369.829 683.03,356.609 C671.06,334.449 679.373,309.925 689.133,291.155" style="stroke:#181818;stroke-width:1;" fill="none" id="A_REGENERER-to-BRIEF_PRET"/><polygon points="691.44,286.719,683.739,292.859,689.133,291.155,690.837,296.55,691.44,286.719" fill="#181818" style="stroke:#181818;stroke-width:1;stroke-linejoin:miter;stroke-miterlimit:10;"/><text x="684.03" y="342.104" fill="#000" font-size="13" textLength="144.562">nouveau snapshot publié</text></g><!--link EN_COURS to BROUILLON_LOCAL--><g class="link" data-entity-1="ent0008" data-entity-2="ent0013" id="lnk14" data-source-line="11" data-link-type="dependency"><path d="M409.98,391.289 C404,389.509 397.9,387.889 392.03,386.609 C331.96,373.559 168.89,389.619 117.03,356.609 C55.62,317.519 51.64,286.709 32.03,216.609 C29.87,208.909 27.01,204.839 32.03,198.609 C51.97,173.879 126.8,161.192 187.5,154.562" style="stroke:#181818;stroke-width:1;" fill="none" id="EN_COURS-to-BROUILLON_LOCAL"/><polygon points="192.47,154.019,183.089,151.02,187.5,154.562,183.958,158.973,192.47,154.019" fill="#181818" style="stroke:#181818;stroke-width:1;stroke-linejoin:miter;stroke-miterlimit:10;"/><text x="55.03" y="272.104" fill="#000" font-size="13" textLength="127.918">sauvegarde hors ligne</text></g><!--link EN_COURS to A_VALIDER--><g class="link" data-entity-1="ent0008" data-entity-2="ent0015" id="lnk16" data-source-line="12" data-link-type="dependency"><path d="M410.01,392.509 C403.97,390.519 397.85,388.509 392.03,386.609 C350.75,373.129 324.6,391.719 299.03,356.609 C288.57,342.239 289.12,331.369 299.03,316.609 C315.97,291.389 343.538,280.23 370.418,274.28" style="stroke:#181818;stroke-width:1;" fill="none" id="EN_COURS-to-A_VALIDER"/><polygon points="375.3,273.199,365.648,271.239,370.418,274.28,367.377,279.05,375.3,273.199" fill="#181818" style="stroke:#181818;stroke-width:1;stroke-linejoin:miter;stroke-miterlimit:10;"/><text x="300.03" y="342.104" fill="#000" font-size="13" textLength="88.169">clôture en ligne</text></g><!--link A_VALIDER to EN_COURS--><g class="link" data-entity-1="ent0015" data-entity-2="ent0008" id="lnk23" data-source-line="17" data-link-type="dependency"><path d="M419.27,286.739 C419.95,305.019 422.15,333.189 429.03,356.609 C432.23,367.499 435.276,374.494 440.266,383.694" style="stroke:#181818;stroke-width:1;" fill="none" id="A_VALIDER-to-EN_COURS"/><polygon points="442.65,388.089,441.875,378.271,440.266,383.694,434.843,382.085,442.65,388.089" fill="#181818" style="stroke:#181818;stroke-width:1;stroke-linejoin:miter;stroke-miterlimit:10;"/><text x="430.03" y="342.104" fill="#000" font-size="13" textLength="122.129">correction demandée</text></g><!--link BROUILLON_LOCAL to A_VALIDER--><g class="link" data-entity-1="ent0013" data-entity-2="ent0015" id="lnk17" data-source-line="13" data-link-type="dependency"><path d="M337.78,166.149 C386.91,178.679 443.48,193.939 447.03,198.609 C457.94,212.959 450.989,228.225 440.019,242.405" style="stroke:#181818;stroke-width:1;" fill="none" id="BROUILLON_LOCAL-to-A_VALIDER"/><polygon points="436.96,246.359,445.631,241.688,440.019,242.405,439.303,236.793,436.96,246.359" fill="#181818" style="stroke:#181818;stroke-width:1;stroke-linejoin:miter;stroke-miterlimit:10;"/><text x="452.03" y="213.104" fill="#000" font-size="13" textLength="146.701">synchronisation acceptée</text></g><!--link BROUILLON_LOCAL to CONFLIT--><g class="link" data-entity-1="ent0013" data-entity-2="ent0018" id="lnk19" data-source-line="14" data-link-type="dependency"><path d="M267.31,167.249 C269.91,189.099 273.559,219.664 276.159,241.514" style="stroke:#181818;stroke-width:1;" fill="none" id="BROUILLON_LOCAL-to-CONFLIT"/><polygon points="276.75,246.479,279.659,237.07,276.159,241.514,271.715,238.015,276.75,246.479" fill="#181818" style="stroke:#181818;stroke-width:1;stroke-linejoin:miter;stroke-miterlimit:10;"/><text x="273.03" y="213.104" fill="#000" font-size="13" textLength="165.464">version serveur incompatible</text></g><!--link CONFLIT to BROUILLON_LOCAL--><g class="link" data-entity-1="ent0018" data-entity-2="ent0013" id="lnk20" data-source-line="15" data-link-type="dependency"><path d="M243.82,260.609 C182.23,251.509 60.32,231.779 48.03,216.609 C6,164.729 109.034,151.691 187.324,148.681" style="stroke:#181818;stroke-width:1;" fill="none" id="CONFLIT-to-BROUILLON_LOCAL"/><polygon points="192.32,148.489,183.173,144.838,187.324,148.681,183.48,152.832,192.32,148.489" fill="#181818" style="stroke:#181818;stroke-width:1;stroke-linejoin:miter;stroke-miterlimit:10;"/><text x="49.03" y="213.104" fill="#000" font-size="13" textLength="213.922">fusion manuelle ou nouvelle tentative</text></g><!--link A_VALIDER to VALIDEE--><g class="link" data-entity-1="ent0015" data-entity-2="ent0021" id="lnk22" data-source-line="16" data-link-type="dependency"><path d="M375.27,277.419 C361.45,280.449 346.12,283.739 332.03,286.609 C261.56,300.949 236.48,282.759 173.03,316.609 C140.76,333.829 115.898,362.753 100.308,383.783" style="stroke:#181818;stroke-width:1;" fill="none" id="A_VALIDER-to-VALIDEE"/><polygon points="97.33,387.799,105.903,382.951,100.308,383.783,99.476,378.187,97.33,387.799" fill="#181818" style="stroke:#181818;stroke-width:1;stroke-linejoin:miter;stroke-miterlimit:10;"/><text x="174.03" y="342.104" fill="#000" font-size="13" textLength="108.405">validation humaine</text></g><!--link VALIDEE to SYNC_CRM_EN_ATTENTE--><g class="link" data-entity-1="ent0021" data-entity-2="ent0024" id="lnk25" data-source-line="18" data-link-type="dependency"><path d="M118.61,425.699 C163.59,447.269 237.482,482.707 284.842,505.417" style="stroke:#181818;stroke-width:1;" fill="none" id="VALIDEE-to-SYNC_CRM_EN_ATTENTE"/><polygon points="289.35,507.579,282.964,500.081,284.842,505.417,279.505,507.295,289.35,507.579" fill="#181818" style="stroke:#181818;stroke-width:1;stroke-linejoin:miter;stroke-miterlimit:10;"/><text x="222.03" y="474.104" fill="#000" font-size="13" textLength="145.958">actions CRM approuvées</text></g><!--link VALIDEE to TERMINEE--><g class="link" data-entity-1="ent0021" data-entity-2="ent0026" id="lnk27" data-source-line="19" data-link-type="dependency"><path d="M83.18,428.379 C82.69,456.009 84.51,507.899 102.03,547.609 C115.74,578.679 138.979,604.053 158.229,622.063" style="stroke:#181818;stroke-width:1;" fill="none" id="VALIDEE-to-TERMINEE"/><polygon points="161.88,625.479,158.041,616.41,158.229,622.063,152.575,622.252,161.88,625.479" fill="#181818" style="stroke:#181818;stroke-width:1;stroke-linejoin:miter;stroke-miterlimit:10;"/><text x="103.03" y="533.104" fill="#000" font-size="13" textLength="114.169">aucune action CRM</text></g><!--link SYNC_CRM_EN_ATTENTE to TERMINEE--><g class="link" data-entity-1="ent0024" data-entity-2="ent0026" id="lnk28" data-source-line="20" data-link-type="dependency"><path d="M252.52,547.739 C235.82,554.869 219.45,564.539 207.03,577.609 C194.66,590.629 189.804,605.668 187.154,620.418" style="stroke:#181818;stroke-width:1;" fill="none" id="SYNC_CRM_EN_ATTENTE-to-TERMINEE"/><polygon points="186.27,625.339,191.798,617.189,187.154,620.418,183.925,615.774,186.27,625.339" fill="#181818" style="stroke:#181818;stroke-width:1;stroke-linejoin:miter;stroke-miterlimit:10;"/><text x="208.03" y="592.104" fill="#000" font-size="13" textLength="103.308">accusé CRM reçu</text></g><!--link SYNC_CRM_EN_ATTENTE to ECHEC_SYNC--><g class="link" data-entity-1="ent0024" data-entity-2="ent0029" id="lnk30" data-source-line="21" data-link-type="dependency"><path d="M322.65,547.729 C319.12,562.019 317.05,581.449 326.03,595.609 C337.47,613.639 352.829,623.403 372.289,630.703" style="stroke:#181818;stroke-width:1;" fill="none" id="SYNC_CRM_EN_ATTENTE-to-ECHEC_SYNC"/><polygon points="376.97,632.459,369.948,625.553,372.289,630.703,367.138,633.043,376.97,632.459" fill="#181818" style="stroke:#181818;stroke-width:1;stroke-linejoin:miter;stroke-miterlimit:10;"/><text x="327.03" y="592.104" fill="#000" font-size="13" textLength="160.393">retries épuisés / rejet métier</text></g><!--link ECHEC_SYNC to SYNC_CRM_EN_ATTENTE--><g class="link" data-entity-1="ent0029" data-entity-2="ent0024" id="lnk31" data-source-line="22" data-link-type="dependency"><path d="M467.05,625.359 C486.86,612.469 504.8,594.779 492.03,577.609 C475.54,555.439 454.198,544.193 427.588,537.243" style="stroke:#181818;stroke-width:1;" fill="none" id="ECHEC_SYNC-to-SYNC_CRM_EN_ATTENTE"/><polygon points="422.75,535.979,430.447,542.124,427.588,537.243,432.469,534.384,422.75,535.979" fill="#181818" style="stroke:#181818;stroke-width:1;stroke-linejoin:miter;stroke-miterlimit:10;"/><text x="497.03" y="592.104" fill="#000" font-size="13" textLength="114.531">correction + relance</text></g><!--link ANNULEE to *end*--><g class="link" data-entity-1="ent0006" data-entity-2="ent0032" id="lnk33" data-source-line="23" data-link-type="dependency"><path d="M1063.38,356.959 C1042.34,380.909 1011.03,423.889 1011.03,467.609 C1011.03,467.609 1011.03,467.609 1011.03,646.609 C1011.03,712.259 763.3,731.976 707.04,735.626" style="stroke:#181818;stroke-width:1;" fill="none" id="ANNULEE-to-*end*"/><polygon points="702.05,735.949,711.29,739.358,707.04,735.626,710.772,731.375,702.05,735.949" fill="#181818" style="stroke:#181818;stroke-width:1;stroke-linejoin:miter;stroke-miterlimit:10;"/></g><!--link TERMINEE to *end*--><g class="link" data-entity-1="ent0026" data-entity-2="ent0032" id="lnk34" data-source-line="24" data-link-type="dependency"><path d="M225.09,653.899 C333.06,673.059 615.777,723.256 675.257,733.806" style="stroke:#181818;stroke-width:1;" fill="none" id="TERMINEE-to-*end*"/><polygon points="680.18,734.679,672.017,729.169,675.257,733.806,670.62,737.046,680.18,734.679" fill="#181818" style="stroke:#181818;stroke-width:1;stroke-linejoin:miter;stroke-miterlimit:10;"/></g><?plantuml-src TLJDRjD04BxxAUQ611JkFI0PimLBhbEv2H92o9gi9_62lMls9wXF1Bdp1dwnpZff6anx6-zyt_n-OwzyHx3GQsCHBk0QPQiqGVDYt7lqZet0dplbbAUaLGq1zOE_WuQSj6hmokZ4_L1wG8izk1ORyqlfBMomSvGaNrz-WukBTt1Jf6L-bGkHdApf_NsLYwlwfX9Bk8IrLRI9v26iEpNkPzYqB5S5svU0MeSEfznd0I96b7MsM5Mt36h6VO_MafrZqheI7qKfAb55cD5wt9C3RiUhdu6jtZHge-9ZSexzhrvjmeumWDCukDRuKzsdAWwKnIelYaLP5uiiBPZda7bRj3pCrbW7dTfg-fUKrf_J8lymLIYxyQyFbYUlZz1vo3d3tMdPMgELcuO4A2KDdXjwafajogiYZmtjoBg8TsHt52meBKq_S8nrHya3xEcUDc5YzgW3TQme4mxZYROdpLfIEqeUYunH3dPSw0uxrHngRKEFhC0Pz6olql1IvOHjYFCriQ-7K15x-wNCwgowhfcKBfUYN4wQcIWEs04u39QBcpPypboAwZel3n8BCWh_m8gavAcmSvAKmOtxAOUbyNTubYIoJoAhevTfbZmhty6u7u9YleEt_FQTFFHyXOeLV0P_liEpmRnYVeTQyXYFHnDfV8p9gTg7XqGRJs3LjlLWDlFD9W15NA3jbSQEK-X96z0XstsSFhrcZEES_6_Gdky6jMV9Alu0xY1wMdJjcuHq0p7NFEDn0HnbnGDdwVfs_EC8yfJXEZOI2DWpKF0C6Z0EYe-L3w91NYWBZ4Vn6FyU?></g></svg>